# xmcd CD database file
# Copyright (C) 1997 Ti Kan
# 
# Track frame offsets:
#     150
#     15570
#     33380
#     49610
#     69268
#     94793
#     113183
# 
# Disc length: 1635 seconds
# 
# Revision: 1
# Processed by: cddbd v1.4b41PL1 Copyright (c) Steve Scherf et al.
# Submitted via: DiscPlay 4.0.4
# 
DISCID=4e066107
DTITLE=Eight To The Bar - Redheads of Rhythm
DYEAR=1900
DGENRE=
TTITLE0=Set You Free
TTITLE1=Standing At The Crossroads
TTITLE2=Young Man's Fool
TTITLE3=Tell Mama
TTITLE4=When Your Baby (Loves You No More)
TTITLE5=No Doubt In My Mind
TTITLE6=60 Minute Man
EXTD=
EXTT0=
EXTT1=
EXTT2=
EXTT3=
EXTT4=
EXTT5=
EXTT6=
PLAYORDER=
